<?xml version="1.0" standalone="no"?><!DOCTYPE svg PUBLIC "-//W3C//DTD SVG 1.1//EN" "http://www.w3.org/Graphics/SVG/1.1/DTD/svg11.dtd"><svg t="1702993588243" class="icon" viewBox="0 0 1290 1024" version="1.1" xmlns="http://www.w3.org/2000/svg" p-id="9948" xmlns:xlink="http://www.w3.org/1999/xlink" width="251.953125" height="200"><path d="M32 32m221.34030375 0l722.26835812 0q221.34030375 0 221.34030282 221.34030375l0 481.68107156q0 221.34030375-221.34030282 221.34030375l-722.26835812 0q-221.34030375 0-221.34030375-221.34030375l0-481.68107156q0-221.34030375 221.34030375-221.34030375Z" fill="#66DBFF" p-id="9949"></path><path d="M339.44522656 394.14717781m-137.2613775 0a137.26137844 137.26137844 0 1 0 274.52275594 0 137.26137844 137.26137844 0 1 0-274.52275594 0Z" fill="#C0FCFF" p-id="9950"></path><path d="M514.69407125 731.47587875a22.79247937 22.79247937 0 0 0 23.29897875-24.31197844 202.59982031 202.59982031 0 0 0-397.09564687 0 22.28598 22.28598 0 0 0 22.79248031 24.31197844z" fill="#C0FCFF" p-id="9951"></path><path d="M1059.18108688 370.84819906h-425.45962125a28.36397437 28.36397437 0 0 1-28.87047469-28.87047469 28.87047469 28.87047469 0 0 1 28.87047469-28.87047375h425.45962125a29.37697406 29.37697406 0 0 1 28.87047468 28.87047375 28.87047469 28.87047469 0 0 1-28.87047468 28.87047469zM1059.18108688 522.79806406h-425.45962125a29.37697406 29.37697406 0 0 1 0-58.24744875h425.45962125a29.37697406 29.37697406 0 0 1 0 58.24744875zM876.84124906 674.74792906h-243.11978344a28.87047469 28.87047469 0 0 1-28.87047468-28.87047468 28.36397437 28.36397437 0 0 1 28.87047468-28.87047375h243.11978344a28.87047469 28.87047469 0 0 1 28.87047469 28.87047375 29.37697406 29.37697406 0 0 1-28.87047469 28.87047468z" fill="#F3FCFF" p-id="9952"></path></svg>